<svg id="Capa_1" enable-background="new 0 0 512 512" height="512" viewBox="0 0 512 512" width="512" xmlns="http://www.w3.org/2000/svg"><g><g><path d="m512 512-108.545-56h-221.455v-210h330z" fill="#d1baff"/></g><path d="m347 456h56.455l108.545 56v-266h-165z" fill="#a9f"/><g><path d="m0 264.272v-264.272h330v210h-221.455z" fill="#d1baff"/></g><path d="m165 0h165v210h-165z" fill="#a9f"/><g id="Feedback_2_"><g><path d="m90 90h30v30h-30z" fill="#ecf2ff"/></g><g><path d="m150 90h30v30h-30z" fill="#ecf2ff"/></g><g><path d="m210 90h30v30h-30z" fill="#d9e5ff"/></g><g><path d="m392 336h30v30h-30z" fill="#d9e5ff"/></g><g><path d="m332 336h30v30h-30z" fill="#ecf2ff"/></g><g><path d="m272 336h30v30h-30z" fill="#ecf2ff"/></g></g><g fill="#d9e5ff"><path d="m165 90h15v30h-15z"/><path d="m347 336h15v30h-15z"/></g></g></svg>