<?xml version="1.0"?>
<svg xmlns="http://www.w3.org/2000/svg" xmlns:xlink="http://www.w3.org/1999/xlink" xmlns:svgjs="http://svgjs.com/svgjs" version="1.1" width="512" height="512" x="0" y="0" viewBox="0 0 512 512" style="enable-background:new 0 0 512 512" xml:space="preserve"><g><linearGradient xmlns="http://www.w3.org/2000/svg" id="a" gradientUnits="userSpaceOnUse" x1="44.413" x2="546.746" y1="543.587" y2="41.254" data-name="New Gradient Swatch 1"><stop stop-opacity="1" stop-color="#8a0081" offset="0.10424710424710425"/><stop stop-opacity="1" stop-color="#00dfde" offset="0.5057915057915058"/><stop stop-opacity="1" stop-color="#8f00f0" offset="0.8185328185328186"/></linearGradient><linearGradient xmlns="http://www.w3.org/2000/svg" xmlns:xlink="http://www.w3.org/1999/xlink" id="b" x1="-45.587" x2="456.746" xlink:href="#a" y1="453.587" y2="-48.746"/><linearGradient xmlns="http://www.w3.org/2000/svg" xmlns:xlink="http://www.w3.org/1999/xlink" id="c" x1="54.413" x2="556.746" xlink:href="#a" y1="553.587" y2="51.254"/><linearGradient xmlns="http://www.w3.org/2000/svg" xmlns:xlink="http://www.w3.org/1999/xlink" id="d" x1="30.413" x2="532.746" xlink:href="#a" y1="529.587" y2="27.254"/><linearGradient xmlns="http://www.w3.org/2000/svg" xmlns:xlink="http://www.w3.org/1999/xlink" id="e" x1="80.413" x2="582.746" xlink:href="#a" y1="579.587" y2="77.254"/><g xmlns="http://www.w3.org/2000/svg"><path d="m496 424h-32v-268a28.031 28.031 0 0 0 -28-28h-54.27c-11.26-59.15-63.35-104-125.73-104s-114.47 44.85-125.73 104h-54.27a28.031 28.031 0 0 0 -28 28v268h-32a8 8 0 0 0 -8 8v36a28.031 28.031 0 0 0 28 28h440a28.031 28.031 0 0 0 28-28v-36a8 8 0 0 0 -8-8zm-240-384a112 112 0 1 1 -112 112 112.123 112.123 0 0 1 112-112zm-8 239.74v72.26a8 8 0 0 0 16 0v-72.26a128.2 128.2 0 0 0 119-111.74h41v232h-336v-232h41a128.2 128.2 0 0 0 119 111.74zm-184-123.74a12.01 12.01 0 0 1 12-12h52.26c-.17 2.65-.26 5.31-.26 8h-48a8 8 0 0 0 -8 8v248a8 8 0 0 0 8 8h352a8 8 0 0 0 8-8v-248a8 8 0 0 0 -8-8h-48c0-2.69-.09-5.35-.26-8h52.26a12.01 12.01 0 0 1 12 12v268h-384zm229.75 284-4 16h-67.5l-4-16zm194.25 28a12.01 12.01 0 0 1 -12 12h-440a12.01 12.01 0 0 1 -12-12v-28h177.75l6.49 25.94a8 8 0 0 0 7.76 6.06h80a8 8 0 0 0 7.76-6.06l6.49-25.94h177.75z" fill="url(#a)" data-original="url(#a)" style=""/><path d="m345.82 152.69a24.052 24.052 0 0 0 -27.32-4.7l-58.52-58.52a23.988 23.988 0 1 0 -38.61 6.65 24.388 24.388 0 0 0 2.37 2.07l-24.08 81.87a24.016 24.016 0 1 0 28.25 28.29l81.92-24.09a23.988 23.988 0 1 0 35.99-31.57zm-113.13-79.2a8.005 8.005 0 1 1 0 11.31 7.943 7.943 0 0 1 0-11.31zm-22.63 135.76a7.979 7.979 0 0 1 -11.31 0 8 8 0 1 1 11.31 0zm94.83-40.22-79.29 23.32a24.12 24.12 0 0 0 -9.95-9.96l23.31-79.26a23.785 23.785 0 0 0 9.73-2.32l58.53 58.52a24.077 24.077 0 0 0 -2.33 9.7zm29.62 6.28a8 8 0 1 1 0-11.31 8 8 0 0 1 0 11.31z" fill="url(#b)" data-original="url(#b)" style=""/><path d="m288 352a8 8 0 0 0 8-8v-48a8 8 0 0 0 -16 0v48a8 8 0 0 0 8 8z" fill="url(#c)" data-original="url(#c)" style=""/><path d="m224 384a8 8 0 0 0 8-8v-80a8 8 0 0 0 -16 0v80a8 8 0 0 0 8 8z" fill="url(#d)" data-original="url(#d)" style=""/><path d="m288 384a8 8 0 0 0 8-8v-8a8 8 0 0 0 -16 0v8a8 8 0 0 0 8 8z" fill="url(#e)" data-original="url(#e)" style=""/></g></g></svg>
