<?xml version="1.0" standalone="no"?>
<!DOCTYPE svg PUBLIC "-//W3C//DTD SVG 20010904//EN"
 "http://www.w3.org/TR/2001/REC-SVG-20010904/DTD/svg10.dtd">
<svg version="1.0" xmlns="http://www.w3.org/2000/svg"
 width="343.000000pt" height="85.000000pt" viewBox="0 0 343.000000 85.000000"
 preserveAspectRatio="xMidYMid meet">

<g transform="translate(0.000000,85.000000) scale(0.100000,-0.100000)"
fill="#000000" stroke="none">
<path d="M1212 658 c-15 -15 -15 -51 0 -66 28 -28 78 -7 78 33 0 12 -5 26 -12
33 -7 7 -21 12 -33 12 -12 0 -26 -5 -33 -12z"/>
<path d="M1660 451 l0 -221 40 0 40 0 -2 218 -3 217 -37 3 -38 3 0 -220z"/>
<path d="M2162 658 c-28 -28 -7 -78 33 -78 27 0 45 18 45 45 0 12 -5 26 -12
33 -7 7 -21 12 -33 12 -12 0 -26 -5 -33 -12z"/>
<path d="M2910 450 l0 -220 40 0 40 0 0 220 0 220 -40 0 -40 0 0 -220z"/>
<path d="M331 516 c-28 -15 -50 -52 -51 -83 0 -35 40 -73 94 -86 59 -15 81
-41 52 -63 -28 -20 -43 -18 -71 10 -17 17 -31 22 -49 19 -35 -7 -33 -35 5 -67
25 -21 41 -26 86 -26 47 0 59 4 84 29 57 57 31 130 -54 151 -69 17 -85 31 -68
59 12 19 62 17 76 -3 13 -17 32 -20 59 -10 12 5 13 10 3 31 -22 48 -111 69
-166 39z"/>
<path d="M615 511 c-55 -33 -69 -57 -73 -124 -6 -108 49 -167 153 -167 67 0
111 27 137 87 34 78 4 174 -66 207 -46 21 -114 20 -151 -3z m134 -77 c68 -87
-45 -202 -117 -119 -20 24 -23 36 -19 69 10 75 93 105 136 50z"/>
<path d="M950 512 c-41 -22 -80 -90 -80 -140 0 -46 35 -109 73 -132 61 -38
164 -21 201 32 23 33 20 46 -14 53 -24 5 -34 2 -48 -15 -24 -30 -75 -30 -107
0 -34 32 -35 97 -2 128 32 30 80 29 105 -3 18 -22 23 -24 51 -14 36 13 37 20
14 56 -34 52 -128 69 -193 35z"/>
<path d="M1393 510 c-35 -21 -59 -58 -46 -70 19 -19 58 -15 76 7 31 39 97 26
97 -18 0 -19 -12 -24 -83 -34 -65 -9 -101 -41 -101 -90 0 -75 103 -115 168
-64 21 17 26 18 26 5 0 -12 10 -16 35 -16 l35 0 0 103 c0 152 -29 197 -130
197 -27 0 -58 -8 -77 -20z m127 -175 c0 -55 -77 -86 -104 -42 -21 33 16 61 87
66 12 1 17 -6 17 -24z"/>
<path d="M1913 510 c-27 -16 -33 -17 -33 -5 0 10 -11 15 -35 15 l-35 0 0 -205
0 -205 35 0 35 0 0 70 0 71 30 -16 c98 -51 200 20 200 139 0 121 -104 193
-197 136z m87 -60 c23 -12 44 -73 35 -102 -13 -40 -36 -58 -76 -58 -29 0 -42
6 -58 26 -58 74 18 177 99 134z"/>
<path d="M2650 512 c-40 -19 -80 -88 -80 -137 1 -47 35 -112 72 -135 62 -38
165 -21 202 32 22 31 20 35 -15 43 -24 5 -36 2 -53 -14 -12 -12 -34 -21 -48
-21 -32 0 -78 35 -78 60 0 18 10 20 108 22 l107 3 -3 35 c-11 106 -114 161
-212 112z m120 -62 c33 -33 24 -40 -50 -40 -40 0 -70 4 -70 10 0 21 41 50 70
50 17 0 39 -9 50 -20z"/>
<path d="M1210 375 l0 -145 35 0 35 0 0 145 0 145 -35 0 -35 0 0 -145z"/>
<path d="M2160 375 l0 -145 35 0 35 0 0 145 0 145 -35 0 -35 0 0 -145z"/>
<path d="M2320 451 c27 -38 50 -72 50 -76 0 -4 -20 -36 -45 -71 -25 -34 -45
-65 -45 -68 0 -3 18 -6 40 -6 35 0 43 4 66 40 15 22 30 40 34 40 4 0 19 -18
34 -40 24 -37 30 -40 71 -40 l45 0 -50 70 c-28 39 -50 73 -50 76 0 4 20 35 45
70 25 34 45 65 45 68 0 3 -18 6 -40 6 -35 0 -43 -4 -66 -40 -15 -22 -29 -40
-33 -40 -3 1 -18 19 -33 40 -25 37 -32 40 -73 40 l-45 0 50 -69z"/>
<path d="M3072 314 c-26 -18 -29 -56 -6 -78 34 -34 84 -11 84 39 0 24 -6 38
-19 45 -26 13 -33 13 -59 -6z"/>
</g>
</svg>
