<?xml version="1.0" encoding="UTF-8"?>
<svg xmlns="http://www.w3.org/2000/svg" id="filled_outline" data-name="filled outline" viewBox="0 0 512 512" width="512" height="512"><path d="M368,288a40,40,0,0,1-40-40V248a40,40,0,0,1,40-40l13.38909,0a56.00585,56.00585,0,0,1,50.61089-32h.00012A55.99994,55.99994,0,0,1,488,231.99994v.00012A55.99994,55.99994,0,0,1,432.00006,288Z" style="fill:#08d175"/><path d="M496,360h-3.56426a138.6602,138.6602,0,0,1-80.59459-25.82775l-.00005,0A76.0857,76.0857,0,0,0,367.61721,320h0a76.08578,76.08578,0,0,0-29.97161,6.1519L296,344H224l-16.47774-4.11943A45.06528,45.06528,0,0,1,182.4,323.2l0,0A48,48,0,0,0,144,304H88.97055A40.97052,40.97052,0,0,0,60,316l0,0a40.97052,40.97052,0,0,1-28.97054,12H16v96H496Z" style="fill:#02c26a"/><path d="M107.99992,256A83.99991,83.99991,0,0,1,24,172.00008v-.00016A83.99991,83.99991,0,0,1,107.99992,88h4.00015a72.001,72.001,0,0,1,64.51578,40l31.48421,0A63.99994,63.99994,0,0,1,272,191.99994v.00012A63.99994,63.99994,0,0,1,208.00006,256Z" style="fill:#08d175"/><path d="M168,424V386a26,26,0,0,1,26-26h22l16-24h32v8l-16,16v14.11147A28.94425,28.94425,0,0,1,232,400h0v24h-8l-16-24H192l-8,24Z" style="fill:#ffc431"/><path d="M336,384l-16,40H304V376h0a28.94425,28.94425,0,0,1-16-25.88852V320l-16-16v-8h32l16,32h32a32,32,0,0,1,32,32v64H368l-16-40Z" style="fill:#ffc431"/><polygon points="160 424 144 400 144 240 200 208 192 184 144 208 144 168 112 168 112 400 96 424 160 424" style="fill:#db8638"/><polygon points="440 424 432 408 432 216 408 216 408 248 384 240 376 264 408 272 408 408 400 424 440 424" style="fill:#db8638"/><path d="M139.794,214.80566a8.0011,8.0011,0,0,0,7.78369.34961l48-24-7.15528-14.31054L152,195.05566V168H136v40A8.00151,8.00151,0,0,0,139.794,214.80566Z"/><rect x="16" y="416" width="16" height="16"/><path d="M400,236.90039l-13.47021-4.49023-5.05958,15.17968,24,8A8,8,0,0,0,416,248V216H400Z"/><rect x="31.99982" y="372.68629" width="16.00036" height="22.62742" transform="translate(-259.82377 140.76821) rotate(-45.00247)"/><rect x="47.99982" y="356.68629" width="16.00036" height="22.62742" transform="translate(-243.81328 147.38268) rotate(-45)"/><rect x="75.05573" y="335.99994" width="17.88854" height="16.00011" transform="translate(-261.2489 265.29041) rotate(-63.43495)"/><rect x="480" y="416" width="16" height="16"/><path d="M291.35352,123.26758a14.12955,14.12955,0,0,1,10.874-.75879l.064.02148A14.17987,14.17987,0,0,1,312,136a8,8,0,0,0,16,0,14.17,14.17,0,0,1,9.67432-13.459l.13281-.044a14.10874,14.10874,0,0,1,10.83935.77051l7.77588,3.88769,7.15528-14.31054-7.77588-3.8877a29.97249,29.97249,0,0,0-23.02051-1.64941l-.13232.043a30.1642,30.1642,0,0,0-12.65137,8.165,30.24341,30.24341,0,0,0-12.68067-8.17578l-.06347-.0205a30.00167,30.00167,0,0,0-23.05518,1.63769l-7.77588,3.8877,7.15528,14.31054Z"/><path d="M348.42236,136.84473l7.15528,14.31054,7.77588-3.88769a14.13407,14.13407,0,0,1,10.874-.75879l.064.02148A14.17987,14.17987,0,0,1,384,160a8,8,0,0,0,16,0,14.17,14.17,0,0,1,9.67432-13.459l.13281-.04395a14.1042,14.1042,0,0,1,10.83935.77051l7.77588,3.88769,7.15528-14.31054-7.77588-3.8877a29.97233,29.97233,0,0,0-23.02051-1.64941l-.13232.043a30.1642,30.1642,0,0,0-12.65137,8.165,30.24341,30.24341,0,0,0-12.68067-8.17578l-.06347-.0205a29.997,29.997,0,0,0-23.05518,1.63769Z"/><rect x="264.00016" y="395.05573" width="15.99968" height="17.88854" transform="translate(-210.99068 466.6099) rotate(-63.43495)"/><rect x="264.00016" y="371.05573" width="15.99968" height="17.88854" transform="translate(-189.52443 453.34303) rotate(-63.43495)"/><rect x="451.05573" y="383.99994" width="17.88854" height="16.00011" transform="translate(-96.33371 628.12878) rotate(-63.43495)"/><rect x="475.05573" y="383.99994" width="17.88854" height="16.00011" transform="translate(-83.0809 649.56407) rotate(-63.43182)"/><path d="M440,341.002V295.48218A63.99022,63.99022,0,1,0,376.61011,200H368a48,48,0,0,0,0,96h32v22.49512a84.02862,84.02862,0,0,0-65.50537.30371L331.69141,320h-6.74707l-13.78907-27.57812A7.99967,7.99967,0,0,0,304,288h-8.96167a33.66139,33.66139,0,0,0-17.77075-22.31055l-1.689-.84472-7.15722,14.31054L270.11182,280a17.81623,17.81623,0,0,1,8.00769,8H272a8.00008,8.00008,0,0,0-8,8v8a8.00076,8.00076,0,0,0,2.34326,5.65723L280,323.31348V336h-8a8.00008,8.00008,0,0,0-8-8H251.88062a17.815,17.815,0,0,1,8.009-8l1.689-.84473-7.15722-14.31054-1.6875.84472A33.66038,33.66038,0,0,0,234.96167,328H232a7.99943,7.99943,0,0,0-6.65625,3.5625l-2.58728,3.88086-13.29358-3.32324a37.183,37.183,0,0,1-20.66309-13.71973A56.29447,56.29447,0,0,0,152,296.606V264h56a72,72,0,0,0,0-144H181.2373A80.0278,80.0278,0,0,0,112,80h-4a91.9973,91.9973,0,0,0-4,183.90771V296H88.9707a48.65034,48.65034,0,0,0-34.62744,14.34277A32.75533,32.75533,0,0,1,31.0293,320H16v16H31.0293a48.65034,48.65034,0,0,0,34.62744-14.34277A32.75533,32.75533,0,0,1,88.9707,312H104v85.57812L91.71875,416H48v16H184a7.99967,7.99967,0,0,0,7.58936-5.46973L197.76611,408h5.95264l13.625,20.4375A7.99943,7.99943,0,0,0,224,432h8a8.00008,8.00008,0,0,0,8-8V404.55371a36.71126,36.71126,0,0,0,16-30.44238V363.31348L267.314,352H280.0575A36.67607,36.67607,0,0,0,296,380.55371V424a8.00008,8.00008,0,0,0,8,8h16a7.99873,7.99873,0,0,0,7.42773-5.0293L341.4165,392h5.167l13.98877,34.9707A7.99873,7.99873,0,0,0,368,432h96V416H444.94434L440,406.11133V358.29565A147.62751,147.62751,0,0,0,492.43555,368H496V352h-3.56445A131.50317,131.50317,0,0,1,440,341.002ZM118.65625,404.4375A7.99836,7.99836,0,0,0,120,400V168H104v79.89355A75.99943,75.99943,0,0,1,108,96h4a64.07239,64.07239,0,0,1,64,64h16a79.71411,79.71411,0,0,0-3.68286-24H208a56,56,0,0,1,0,112H152v-3.35742l51.96924-29.69629-7.93848-13.89258-56,32A8.00057,8.00057,0,0,0,136,240V400a7.99836,7.99836,0,0,0,1.34375,4.4375L145.052,416H110.948ZM160,386v23.57812l-8-12V312.83521A40.20216,40.20216,0,0,1,176,328a53.21849,53.21849,0,0,0,29.58252,19.6416l7.75024,1.9375L211.71875,352H194A34.03833,34.03833,0,0,0,160,386Zm82.34326-31.65723A8.00076,8.00076,0,0,0,240,360v14.11133a20.83107,20.83107,0,0,1-11.57812,18.7334A8.00022,8.00022,0,0,0,224,400v9.57812l-9.34375-14.01562A7.99943,7.99943,0,0,0,208,392H192a7.99967,7.99967,0,0,0-7.58936,5.46973L178.23389,416H176V386a18.02063,18.02063,0,0,1,18-18h22a7.99943,7.99943,0,0,0,6.65625-3.5625L236.28125,344h16.40527ZM376,416h-2.5835l-13.98877-34.9707A7.99873,7.99873,0,0,0,352,376H336a7.99873,7.99873,0,0,0-7.42773,5.0293L314.5835,416H312V376a8.00022,8.00022,0,0,0-4.42188-7.15527A20.83107,20.83107,0,0,1,296,350.11133V320a8.00076,8.00076,0,0,0-2.34326-5.65723L283.31348,304h15.74218l13.78907,27.57812A7.99967,7.99967,0,0,0,320,336h32a24.02718,24.02718,0,0,1,24,24Zm.76172-87.37915A67.96115,67.96115,0,0,1,400,336.20093v69.9104L395.05566,416H392V360A39.939,39.939,0,0,0,376.76172,328.62085ZM412.94434,416l2.21093-4.42188A7.99934,7.99934,0,0,0,416,408V272a7.9992,7.9992,0,0,0-6.05957-7.76074l-32-8-3.88086,15.52148L400,278.24609V280H368a32,32,0,0,1,0-64h2.02527A63.89479,63.89479,0,0,0,368,232h16a48,48,0,1,1,56,47.32056V216H424V408a7.99934,7.99934,0,0,0,.84473,3.57812L427.05566,416Z"/></svg>
