<svg id="Capa_1" enable-background="new 0 0 512 512" height="512" viewBox="0 0 512 512" width="512" xmlns="http://www.w3.org/2000/svg"><g><path d="m0 256c0-141.23 114.365-255.75 255.537-255.999 140.257-.248 255.266 113.532 256.453 253.784.012 1.379.012 2.756.002 4.13-.739 101.017-83.856 182.085-184.876 182.085h-142.91c-100.151 0-182.696-79.997-184.177-180.138-.019-1.285-.029-2.572-.029-3.862z" fill="#40c1fa"/><path d="m219.983 214.275c.406 8.614-6.458 15.725-14.983 15.725h-80c-8.284 0-15-6.716-15-15 0-8.284-6.716-15-15-15h-50c-8.525 0-15.389-7.111-14.983-15.725.38-8.068 7.33-14.275 15.407-14.275h149.153c8.076 0 15.025 6.205 15.406 14.272.407 8.612-6.452 15.722-14.973 15.728h9.567c8.076 0 15.026 6.207 15.406 14.275zm190.017 60.725c0-8.284-6.716-15-15-15h-80c-8.284 0-15 6.716-15 15 0 8.284 6.716 15 15 15h80c8.284 0 15-6.716 15-15zm0-180c0-8.284-6.716-15-15-15h-80c-8.284 0-15 6.716-15 15 0 8.284 6.716 15 15 15h80c8.284 0 15-6.716 15-15zm-170-10c0-8.284-6.716-15-15-15h-80c-8.284 0-15 6.716-15 15 0 8.284 6.716 15 15 15h80c8.284 0 15-6.716 15-15z" fill="#93dcfc"/><path d="m512 256c0 107.495-66.254 199.516-160.155 237.454-1.102.445-2.207.883-3.316 1.313-18.314 7.102-38.059-6.566-37.509-26.202.007-.245.015-.49.026-.735 1.1-26.006 22.455-47.055 48.473-47.808 3.794-.11 7.497.204 11.065.897.792-6.11 2.371-11.973 4.633-17.483-15.869-9.074-26.288-26.595-25.129-46.436 1.476-25.28 22.073-45.68 47.365-46.936 5.201-.258 10.238.279 15.001 1.5 2.722-9.995 7.602-19.1 14.11-26.782-4.532-7.927-6.957-17.213-6.511-27.097 1.161-25.725 22.121-46.59 47.851-47.642 12.289-.502 23.645 3.433 32.597 10.335 2.569-1.98 5.336-3.716 8.267-5.173 2.126 13.284 3.232 26.91 3.232 40.795zm-271.993 90.994c-.002 0-.005.001-.007.001-.047-.33-.095-.66-.146-.989-5.939-38.201-51.066-64.354-89.267-58.415-4.03.626-7.927 1.585-11.665 2.844 1.237-5.794 1.457-11.907.492-18.109-4.242-27.287-29.802-45.967-57.088-41.725-11.898 1.85-22.159 7.753-29.598 16.084-6.26-21.575-26.307-36.356-48.729-36.005-2.628 14.71-3.999 29.855-3.999 45.32 0 14.189 1.154 28.109 3.374 41.67 6.255 38.207 220.653 151.556 242.652 148.137 27.287-4.243 45.967-29.802 41.725-57.088-4.242-27.287-20.457-45.968-47.744-41.725z" fill="#54a770"/><path d="m351.846 493.454c-19.603 7.92-40.41 13.483-62.071 16.338-.518.068-1.145.13-1.872.186-45.345 3.482-81.338-37.641-72.419-82.236l32.81-164.05h57.6z" fill="#c88a1d"/><path d="m351.846 493.454c-19.603 7.92-40.41 13.483-62.072 16.338-.197.026-.405.052-.624.077-33.034 3.804-60.077-25.982-53.556-58.589l37.518-187.588h32.781z" fill="#e1b91e"/><path d="m273.34 391.128-31.823-28.354c-4.857-4.328-4.354-12.068 1.022-15.73l25.63-17.459c6.144-4.185 14.544-.442 15.54 6.925l6.192 45.813c1.245 9.199-9.629 14.981-16.561 8.805zm1.804 42.264-36.548-21.929c-7.961-4.777-17.568 2.929-14.632 11.737l14.619 43.857c2.351 7.053 11.302 9.166 16.558 3.909l21.929-21.929c4.601-4.599 3.653-12.298-1.926-15.645zm32.248-11.006 31.972 8.658-13.281-66.404c-1.864.873-3.497 2.349-4.582 4.428l-20.363 39.042c-2.953 5.664.088 12.607 6.254 14.276zm3.321 45.485-20.675 41.349c-.095.189-.183.38-.264.571 16.144-2.128 31.815-5.76 46.865-10.751l-7.281-29.123c-2.25-9.006-14.492-10.35-18.645-2.046z" fill="#c88a1d"/><path d="m511.396 105.887c-8.943 30.387-30.111 57.07-60.792 72.119-15.716 7.708-32.318 11.574-48.74 11.961-.997 9.382-3.678 18.691-8.125 27.474l-49.657 98.082c-12.976 25.63-39.263 41.786-67.991 41.786-30.183 0-57.521-17.813-69.714-45.423l-43.086-97.571c-3.492-7.908-5.608-16.167-6.407-24.469-15.357-.792-30.809-4.639-45.488-11.839-30.681-15.049-51.849-41.731-60.792-72.119-2.174-7.386 1.69-15.265 8.862-18.067 18.811-7.351 75.306 16.29 115.418 43.6 1.498-1.799 3.083-3.543 4.756-5.226l16.596-16.685 30.672-97.98c2.424-7.743 10.134-12.559 18.155-11.341 8.021 1.219 13.954 8.107 13.969 16.22l.088 45.985c13.309-3.337 27.322-3.187 40.585.472l.089-46.458c.016-8.113 5.948-15.001 13.969-16.22 8.021-1.218 15.731 3.598 18.155 11.341l30.768 98.29 14.875 14.125c2.859 2.715 5.479 5.605 7.857 8.64 40.199-27.797 98.036-52.218 117.114-44.763 7.174 2.801 11.038 10.68 8.864 18.066z" fill="#eac23f"/><path d="m159.827 159.54c-.012.041-.025.083-.037.124-1.171 3.956-4.345 7.031-8.386 7.861-12.402 2.549-25.713 1.157-37.961-4.851-17.638-8.651-29.058-24.906-32.246-42.872 12.442-6.527 54.755 11.321 75.016 28.079 3.414 2.824 4.878 7.413 3.614 11.659zm239.517.523c.018.064.036.128.054.192.772 2.776 2.863 4.989 5.617 5.839 13.916 4.296 29.435 3.5 43.542-3.419 17.638-8.651 29.057-24.906 32.246-42.872-13.438-7.05-61.716 14.334-79.429 32.068-2.136 2.138-2.847 5.282-2.03 8.192z" fill="#c88a1d"/><path d="m337.07 27.981-5.15 16.453c-2.424 7.743-10.134 12.559-18.155 11.341-8.021-1.218-13.954-8.107-13.969-16.22l-.022-11.574.022-11.574c.016-8.113 5.948-15.001 13.969-16.22 8.021-1.218 15.732 3.598 18.155 11.341zm-78.038-11.573c-.016-8.113-5.948-15.001-13.969-16.22-8.021-1.218-15.732 3.598-18.155 11.341l-5.15 16.453 5.15 16.453c2.424 7.743 10.134 12.559 18.155 11.341s13.954-8.107 13.969-16.22l.022-11.574z" fill="#edd578"/><path d="m377.564 123.942-44.346-42.108c-10.971-10.417-24.153-17.096-37.959-20.06-14.533 3.118-28.349 10.342-39.592 21.646l-42.544 42.773c-23.078 23.203-29.568 58.183-16.348 88.12l43.086 97.571c.678 1.536 1.404 3.042 2.174 4.516 21.075 40.347 79.355 41.046 101.05 1.029.342-.63.675-1.266 1-1.908l49.657-98.082c15.853-31.315 9.277-69.326-16.178-93.497z" fill="#e9cc5a"/><path d="m230.131 188.378c-5.56 12.121-19.893 17.44-32.014 11.88s-17.44-19.893-11.88-32.014 19.893-17.44 32.014-11.88c12.121 5.559 17.44 19.893 11.88 32.014zm137.819-20.135c-5.56-12.121-19.893-17.44-32.014-11.88-12.121 5.56-17.44 19.893-11.88 32.014s19.893 17.44 32.014 11.88 17.44-19.893 11.88-32.014z" fill="#df9d28"/><path d="m221.815 184.563c-3.453 7.528-12.355 10.832-19.883 7.378s-10.832-12.355-7.378-19.883c3.453-7.528 12.355-10.831 19.883-7.378 7.527 3.452 10.831 12.355 7.378 19.883zm137.819-12.505c-3.453-7.528-12.355-10.831-19.883-7.378s-10.832 12.355-7.378 19.883c3.453 7.528 12.355 10.832 19.883 7.378s10.831-12.355 7.378-19.883z" fill="#3f4a4a"/><path d="m228.562 174.188c0 5.216-4.229 9.445-9.445 9.445s-9.445-4.229-9.445-9.445 4.229-9.445 9.445-9.445 9.445 4.229 9.445 9.445zm137.5 0c0 5.216-4.229 9.445-9.445 9.445s-9.445-4.229-9.445-9.445 4.229-9.445 9.445-9.445 9.445 4.229 9.445 9.445z" fill="#fffac1"/><path d="m342.171 281.289c0 28.24-29.136 51.133-65.078 51.133s-65.078-22.893-65.078-51.133c0-14.253 7.423-27.145 19.396-36.417-.521-1.714-.802-3.534-.802-5.418 0-9.191 6.669-16.825 15.433-18.326l11.824-106.977c.89-8.055 7.697-14.15 15.8-14.15 7.853 0 14.53 5.735 15.715 13.498l16.389 107.378c9.905.412 17.808 8.571 17.808 18.577 0 1.885-.281 3.704-.802 5.418 11.973 9.273 19.395 22.164 19.395 36.417zm-113.012-107.26c4.17.905 8.166-2.17 8.209-6.438.093-9.234-5.146-18.103-14.083-22.202-8.94-4.101-19.084-2.284-26.023 3.816-3.087 2.714-3.063 7.651.178 10.179 1.452 1.133 3.058 2.117 4.804 2.918l21.947 10.067c1.625.747 3.29 1.297 4.968 1.66zm127.766-24.823c-6.939-6.1-17.083-7.917-26.023-3.816-8.937 4.099-14.176 12.968-14.083 22.202.043 4.267 4.039 7.342 8.209 6.438 1.678-.364 3.343-.914 4.968-1.659l21.947-10.067c1.747-.801 3.353-1.785 4.805-2.918 3.24-2.529 3.264-7.466.177-10.18z" fill="#f5e8b4"/><path d="m342.171 281.289c0 3.924-.563 7.745-1.628 11.415-16.665 9.242-38.819 14.796-63.45 14.796s-46.785-5.554-63.45-14.796c-1.065-3.67-1.628-7.491-1.628-11.415 0-2.436.217-4.831.636-7.176 14.606 11.047 38.295 18.387 64.442 18.387s49.836-7.339 64.442-18.387c.42 2.345.636 4.741.636 7.176zm-92.968-32.539c5.135 0 9.297-4.162 9.297-9.297s-4.162-9.297-9.297-9.297-9.297 4.162-9.297 9.297 4.162 9.297 9.297 9.297zm55.781 0c5.135 0 9.297-4.162 9.297-9.297s-4.162-9.297-9.297-9.297-9.297 4.162-9.297 9.297 4.162 9.297 9.297 9.297z" fill="#e8b863"/><path d="m289.999 509.762c-11.124 1.476-22.472 2.238-33.999 2.238-127.195 0-232.724-92.764-252.625-214.328 7.709-4.859 16.838-7.672 26.625-7.672 27.614 0 50 22.386 50 50 0 3.278-.316 6.482-.918 9.584 6.11.792 11.973 2.371 17.483 4.633 8.614-15.065 24.839-25.217 43.435-25.217 27.614 0 50 22.386 50 50 0 4.3-.543 8.472-1.564 12.454 29.715 8.091 51.564 35.267 51.564 67.546 0 .334-.003.667-.007 1h.007c27.535 0 49.87 22.257 49.999 49.762z" fill="#9bcf1b"/></g></svg>